:SAMPLES-PER-SECOND 30
:FULLY-SPECIFIED
:DEGREES
100
root  -19.375 39.5221 0.212114 -157.778 -77.7971 149.266
RightUpLeg  -6.11461 1.06763 -10.289
RightLeg  64.8484 -2.64332 -6.73118
RightFoot  10.3614 -0.537389 3.2004
RightToes  1.74622e-010 0 -3.6325e-017
Spine  3.51131 1.35462 -2.45885
Spine1  12.362 2.5082 -4.15407
HEad  -1.17511 4.71779 -4.43431
LeftShoulder1  8.68434 -12.0085 -48.8685
LeftArm  -7.65692 19.6759 -26.1688
LeftForeArm  20.3842 -19.4347 -4.16499
LeftHand  -0.244104 0.0205437 5.32207
RightShoulder  7.89834 11.5223 45.943
RightArm  -3.51962 -1.43827 33.2485
RightForeArm  14.1155 0.449439 7.49576
RightHand  -1.03703 2.07926 -16.2325
LeftUpLeg  -9.74113 18.2178 -8.98357
LeftLeg  18.3568 4.05691 1.39818
LeftFoot  -2.34423 -0.408745 5.36799
LeftToes  -1.18267e-011 5.39559e-011 -6.19194e-012
101
root  -20.6955 39.8407 0.241901 -158.39 -78.6485 149.502
RightUpLeg  -11.0121 0.277461 -9.35087
RightLeg  64.9332 -2.1688 -5.70415
RightFoot  7.85605 -0.69105 4.39548
RightToes  1.74622e-010 0 -3.6325e-017
Spine  4.76156 0.665433 -2.70196
Spine1  12.0071 1.50473 -3.38965
HEad  -2.12228 5.12499 -4.51503
LeftShoulder1  8.46244 -11.7396 -48.4562
LeftArm  -10.2283 17.5808 -25.439
LeftForeArm  22.0376 -27.2023 -4.56878
LeftHand  -0.244104 0.0205437 5.32207
RightShoulder  7.84468 11.4147 45.9589
RightArm  -2.95329 -5.24537 32.5385
RightForeArm  14.9231 2.12099 7.54844
RightHand  -1.01076 1.94674 -16.1009
LeftUpLeg  -5.91077 16.7786 -7.66224
LeftLeg  16.7659 4.84791 0.385403
LeftFoot  -3.80965 -0.287626 4.70809
LeftToes  -1.18267e-011 5.39559e-011 -6.19194e-012
102
root  -21.9965 40.0426 0.251237 -158.397 -79.6499 149.079
RightUpLeg  -14.8425 -0.512197 -8.42418
RightLeg  61.5291 -2.05761 -4.64187
RightFoot  6.73242 -0.692959 4.63709
RightToes  1.74622e-010 0 -3.6325e-017
Spine  5.91875 0.0685413 -3.01403
Spine1  11.7927 0.577937 -2.80786
HEad  -2.91291 5.26675 -4.27728
LeftShoulder1  8.30239 -11.5784 -48.0434
LeftArm  -14.2505 16.2133 -24.5431
LeftForeArm  25.9952 -36.0559 -6.61859
LeftHand  -0.244104 0.0205437 5.32207
RightShoulder  7.56748 11.1246 45.1877
RightArm  -1.61457 -9.50814 32.1667
RightForeArm  13.291 5.46013 8.02109
RightHand  -0.984773 1.93841 -15.7146
LeftUpLeg  -2.41272 14.1812 -6.49284
LeftLeg  15.6924 6.47118 -0.627209
LeftFoot  -5.22468 -0.183021 4.02491
LeftToes  -1.18267e-011 5.39559e-011 -6.19194e-012
103
root  -23.3016 40.2001 0.236587 -157.826 -80.4488 147.944
RightUpLeg  -17.3192 -1.151 -7.71304
RightLeg  54.915 -2.59048 -4.35761
RightFoot  5.65134 -0.57768 4.12663
RightToes  1.74622e-010 0 -3.6325e-017
Spine  6.91139 -0.315424 -3.51743
Spine1  11.6865 -0.13126 -2.10551
HEad  -3.49106 5.31167 -3.94064
LeftShoulder1  8.21101 -11.4821 -47.816
LeftArm  -16.7437 15.1009 -23.4638
LeftForeArm  29.0105 -44.9718 -9.17128
LeftHand  -0.244104 0.0205437 5.32207
RightShoulder  7.28314 10.8629 44.2453
RightArm  0.534578 -13.5574 31.7049
RightForeArm  10.1958 9.00695 8.36263
RightHand  -0.994578 2.11758 -15.5021
LeftUpLeg  1.06124 11.5553 -5.67926
LeftLeg  14.5313 8.08782 -1.70838
LeftFoot  -6.13202 -0.131465 3.70566
LeftToes  -1.18267e-011 5.39559e-011 -6.19194e-012
104
root  -24.6207 40.2357 0.183746 -154.618 -81.1395 144.231
RightUpLeg  -18.5504 -2.27647 -7.5976
RightLeg  45.7806 -3.35551 -4.00463
RightFoot  4.21916 -0.612882 4.70358
RightToes  1.74622e-010 0 -3.6325e-017
Spine  7.54879 -0.60161 -4.37126
Spine1  11.6792 -0.710938 -1.52418
HEad  -3.80599 5.21655 -3.44713
LeftShoulder1  8.13558 -11.3833 -47.6886
LeftArm  -18.238 13.8347 -22.233
LeftForeArm  31.7598 -52.8022 -12.2286
LeftHand  -0.244104 0.0205437 5.32207
RightShoulder  7.09645 10.6862 43.6168
RightArm  3.5609 -17.0661 31.0651
RightForeArm  6.93761 12.0243 8.06067
RightHand  -1.05639 2.46485 -15.7443
LeftUpLeg  4.02035 9.87467 -5.47516
LeftLeg  14.1242 8.79728 -2.46908
LeftFoot  -7.6352 -0.0664787 3.45452
LeftToes  -1.18267e-011 5.39559e-011 -6.19194e-012
105
root  -25.9994 40.113 0.0862855 -147.788 -81.7902 137.189
RightUpLeg  -18.9707 -4.1316 -7.91107
RightLeg  35.2708 -3.60083 -2.99228
RightFoot  3.49928 -0.773217 6.10654
RightToes  1.74622e-010 0 -3.6325e-017
Spine  7.47492 -0.898225 -5.42089
Spine1  11.8365 -1.19308 -1.22518
HEad  -3.94852 4.78917 -2.81289
LeftShoulder1  8.04372 -11.2881 -47.449
LeftArm  -19.2068 12.4625 -21.171
LeftForeArm  34.6747 -59.0401 -15.6391
LeftHand  -0.244104 0.0205437 5.32207
RightShoulder  6.92228 10.4933 43.1041
RightArm  5.13323 -19.9329 30.6054
RightForeArm  5.56197 13.6219 7.62638
RightHand  -1.08504 2.57613 -15.9457
LeftUpLeg  6.29176 9.03665 -5.79505
LeftLeg  14.7221 8.67932 -2.67853
LeftFoot  -9.99172 0.023207 3.15966
LeftToes  -1.18267e-011 5.39559e-011 -6.19194e-012
106
root  -27.4266 39.949 -0.0394223 -139.52 -82.2718 128.98
RightUpLeg  -18.8736 -5.94106 -8.11837
RightLeg  24.1904 -2.86661 -1.65361
RightFoot  3.75558 -0.853007 6.62644
RightToes  1.74622e-010 0 -3.6325e-017
Spine  6.78122 -1.14876 -6.24091
Spine1  12.1702 -1.49816 -0.958977
HEad  -4.02877 4.03298 -2.2104
LeftShoulder1  7.93651 -11.2064 -47.0693
LeftArm  -19.8714 11.2343 -20.4396
LeftForeArm  37.7662 -63.7167 -19.1996
LeftHand  -0.244104 0.0205437 5.32207
RightShoulder  6.7481 10.287 42.6205
RightArm  4.42954 -22.1367 30.4013
RightForeArm  5.83276 13.4576 7.5778
RightHand  -1.02359 2.24067 -15.6951
LeftUpLeg  8.47844 8.31111 -6.30879
LeftLeg  15.029 8.47416 -2.63364
LeftFoot  -12.1411 0.0963899 3.22735
LeftToes  -1.18267e-011 5.39559e-011 -6.19194e-012
107
root  -28.8601 39.7796 -0.184808 -131.785 -82.4893 121.303
RightUpLeg  -18.2018 -6.98118 -8.25405
RightLeg  13.1585 -1.06862 -0.425945
RightFoot  4.18564 -0.83226 6.30662
RightToes  1.74622e-010 0 -3.6325e-017
Spine  6.07804 -1.27142 -6.71213
Spine1  12.4633 -1.59741 -0.744117
HEad  -4.09999 3.20148 -1.79073
LeftShoulder1  7.85554 -11.1454 -46.7763
LeftArm  -20.228 10.2128 -19.8842
LeftForeArm  40.6657 -66.8502 -22.369
LeftHand  -0.244104 0.0205437 5.32207
RightShoulder  6.68361 10.1818 42.5321
RightArm  1.81728 -23.6455 30.067
RightForeArm  7.2942 11.8446 7.76517
RightHand  -0.921752 1.69717 -15.21
LeftUpLeg  10.9169 7.83702 -6.67758
LeftLeg  14.8517 8.12144 -2.63772
LeftFoot  -14.1588 0.168587 3.41006
LeftToes  -1.18267e-011 5.39559e-011 -6.19194e-012
108
root  -30.3237 39.5244 -0.361807 -123.925 -82.5514 113.355
RightUpLeg  -16.9852 -7.27061 -8.75121
RightLeg  3.8796 0.703713 0.550389
RightFoot  4.05926 -0.900349 6.86564
RightToes  1.74622e-010 0 -3.6325e-017
Spine  5.64179 -1.36008 -7.03603
Spine1  12.5232 -1.65996 -0.66161
HEad  -4.24073 2.54194 -1.68995
LeftShoulder1  7.85953 -11.1531 -46.7753
LeftArm  -20.3185 9.43641 -19.446
LeftForeArm  42.4768 -68.1987 -23.9934
LeftHand  -0.244104 0.0205437 5.32207
RightShoulder  6.71435 10.1606 42.8108
RightArm  -1.56772 -24.4277 29.6089
RightForeArm  9.44541 9.4846 7.70899
RightHand  -0.835004 1.18466 -14.8384
LeftUpLeg  13.3848 8.45038 -6.47931
LeftLeg  15.3202 6.57746 -2.71187
LeftFoot  -16.7139 0.232155 2.85401
LeftToes  -1.18267e-011 5.39559e-011 -6.19194e-012
109
root  -31.8357 39.2074 -0.573739 -114.291 -82.6819 103.677
RightUpLeg  -15.9535 -7.71624 -9.29692
RightLeg  -0.918492 1.12729 1.44885
RightFoot  3.91085 -1.07908 8.21473
RightToes  1.74622e-010 0 -3.6325e-017
Spine  5.12548 -1.55736 -7.37731
Spine1  12.5238 -1.96751 -0.242716
HEad  -4.48912 2.10405 -1.99219
LeftShoulder1  7.95338 -11.2571 -47.0062
LeftArm  -20.1632 9.18614 -19.3053
LeftForeArm  42.3631 -67.6709 -23.2737
LeftHand  -0.244104 0.0205437 5.32207
RightShoulder  6.67608 10.0793 42.8216
RightArm  -4.16052 -24.6843 29.532
RightForeArm  10.8481 7.31385 7.27008
RightHand  -0.770206 0.738508 -14.6634
LeftUpLeg  15.5363 10.3311 -5.49952
LeftLeg  16.7819 3.29573 -2.59047
LeftFoot  -19.0321 0.227911 1.67696
LeftToes  -1.18267e-011 5.39559e-011 -6.19194e-012
110
root  -33.3449 38.9841 -0.796408 -103.467 -83.0354 93.1359
RightUpLeg  -15.5838 -8.35899 -9.20761
RightLeg  -1.00115 -0.291489 2.239
RightFoot  6.15186 -1.13932 7.72789
RightToes  1.74622e-010 0 -3.6325e-017
Spine  4.27457 -1.86797 -7.26538
Spine1  12.7128 -2.50116 0.604223
HEad  -4.71651 1.78622 -2.49929
LeftShoulder1  8.08434 -11.3988 -47.3333
LeftArm  -19.5584 9.71725 -19.4078
LeftForeArm  40.915 -65.6889 -20.9391
LeftHand  -0.244104 0.0205437 5.32207
RightShoulder  6.52735 9.90496 42.3856
RightArm  -5.38344 -24.8712 29.8819
RightForeArm  10.7282 6.23823 6.89047
RightHand  -0.732769 0.43177 -14.6671
LeftUpLeg  17.2223 12.2739 -4.1372
LeftLeg  18.2597 -0.296494 -1.91669
LeftFoot  -20.037 0.162618 0.550855
LeftToes  -1.18267e-011 5.39559e-011 -6.19194e-012
111
root  -34.8682 38.8717 -1.00261 -95.9196 -83.8345 86.0184
RightUpLeg  -16.1586 -8.46012 -8.13702
RightLeg  2.33911 -2.03329 2.45557
RightFoot  11.2001 -0.738858 4.16507
RightToes  1.74622e-010 0 -3.6325e-017
Spine  3.32853 -2.19221 -5.51506
Spine1  12.8158 -2.76012 0.677379
HEad  -4.81615 1.55512 -2.89564
LeftShoulder1  8.21824 -11.4938 -47.8211
LeftArm  -18.3048 10.9397 -19.3952
LeftForeArm  39.7259 -62.7863 -18.0995
LeftHand  -0.244104 0.0205437 5.32207
RightShoulder  6.40959 9.74845 42.0943
RightArm  -5.46966 -25.1281 30.0814
RightForeArm  9.8818 6.63341 6.96608
RightHand  -0.738005 0.421384 -14.7951
LeftUpLeg  18.506 12.631 -2.77266
LeftLeg  19.7195 -1.87453 -0.847144
LeftFoot  -20.388 0.0172333 -1.28134
LeftToes  -1.18267e-011 5.39559e-011 -6.19194e-012
